<?xml version="1.0" encoding="utf-8"?>
<!-- Generator: Adobe Illustrator 24.3.0, SVG Export Plug-In . SVG Version: 6.00 Build 0)  -->
<svg version="1.1" id="Calque_1" xmlns="http://www.w3.org/2000/svg" xmlns:xlink="http://www.w3.org/1999/xlink" x="0px" y="0px"
	 viewBox="0 0 500 500" style="enable-background:new 0 0 500 500;" xml:space="preserve">
<style type="text/css">
	.st0{fill:#ffffff;}
	.st1{fill:none;}
</style>
<g id="Calque_1_1_">
	<rect class="st0" width="500" height="500"/>
</g>
<g id="Calque_2_1_">
	<g>
		<path class="st1" d="M173.03,331.86c-16.25-15.08-40.44-14.63-56.3,1.24c-8.48,8.49-16.41,17.53-25.06,25.83
			c-19.93,19.1-21.38,41.77-13.32,66.32c0.77,2.34,3.12,4.94,5.38,5.87c22.3,9.18,47.39,3.77,64.6-13.62
			c4-4.04,7.89-8.18,11.83-12.28c-0.02-0.02-0.05-0.04-0.07-0.07c5.25-5.46,10.71-10.74,15.72-16.41
			C191.06,371.5,189.81,347.43,173.03,331.86z"/>
		<path class="st1" d="M327.23,160.03c-16.68-16.45-25.87-38.32-25.86-61.59c0-23.26,9.19-45.12,25.86-61.54l5.21-5.14
			c-25.4,2.51-49.14,13.27-67.68,30.84c-20.74,19.66-33.1,46.04-34.79,74.28c-0.01,0.2-0.03,0.41-0.05,0.61
			c-0.2,1.69-0.29,3.71-0.29,6.01v0.11c0,25.22-9.7,49.25-27.31,67.65c-0.08,0.08-0.15,0.16-0.23,0.23L56.86,354.56
			c-9.67,9.52-15.01,22.18-15.05,35.63c-0.04,12.36,4.42,24.06,12.59,33.31c-0.16-2.1-0.12-4.13-0.55-6.06
			c-5.95-26.7,0.41-50.09,18.95-70.1c8.59-9.27,17.71-18.06,26.25-27.38c25.98-28.33,64.43-25.26,84.77-7.88
			c29.59,25.29,33.27,60.98,8.89,90.76c-10.17,12.42-21.72,23.87-33.63,34.67C140.34,454.5,118,460.3,93.03,455.5
			c-1.81-0.35-3.68-0.32-6.6-0.56c0.05,0.23,0.1,0.43,0.15,0.65c1.25,0.41,2.45,1.03,3.54,1.91c21.18,17.13,51.69,14.4,69.52-6.21
			l132.81-163.96c0.14-0.17,0.28-0.33,0.43-0.49c3.7-4.06,7.76-7.82,12.08-11.21c7.97-8.85,27.18-16.17,35.38-19
			c1.16-0.4,2.38-0.6,3.61-0.6c2.37,0,4.85-0.08,7.36-0.24c2.4-0.34,4.82-0.6,7.2-0.76c0.03,0,0.06,0,0.08-0.01h0.04
			c0.49-0.03,0.97-0.07,1.43-0.11c26.71-3.71,51.32-16.73,69.33-36.7c16.14-17.89,26.01-40.34,28.29-64.02l-5.94,5.85
			C417.42,193.85,361.56,193.85,327.23,160.03z"/>
		<path d="M480.28,144.61c-0.63-9.9-8.89-17.66-18.79-17.66c-4.66,0-9.17,1.76-12.69,4.95c-0.11,0.1-0.22,0.2-0.32,0.31
			l-12.25,12.07c-25.77,25.39-67.71,25.39-93.48,0c-12.43-12.26-19.28-28.53-19.27-45.84c0-17.29,6.85-33.55,19.27-45.79
			l11.88-11.71c0.07-0.07,0.15-0.15,0.22-0.22c3.42-3.56,5.3-8.16,5.3-12.96c0-9.78-7.72-17.97-17.58-18.64
			c-0.32-0.02-0.63-0.03-0.94-0.02c-34.5,0.58-67.2,13.88-92.07,37.45c-24.76,23.47-39.54,54.97-41.63,88.72
			c-0.27,2.48-0.4,5.18-0.4,8.24v0.11c0,19.45-7.48,37.99-21.07,52.25L41.34,338.81c-13.9,13.7-21.59,31.92-21.65,51.32
			c-0.03,10.97,2.38,21.59,6.99,31.23c4.23,11.7,11.37,22.15,23.13,24.48c9.05,1.79,13.35,6.37,15.46,15.2
			c2.27,9.52,11.48,16.51,22.26,21.19c10.74,5.81,22.49,8.67,34.18,8.67c20.3,0,40.44-8.61,54.8-25.31
			c0.07-0.08,0.14-0.16,0.21-0.25l132.71-163.83c3.04-3.31,6.39-6.36,9.96-9.09c0.81-0.62,1.5-1.31,2.11-2.12
			c2.18-2.62,13.53-8.26,24.4-12.18c2.39-0.04,4.84-0.14,7.31-0.3c0.3-0.02,0.59-0.05,0.88-0.09c1.99-0.29,3.99-0.51,5.94-0.64
			c0.01,0,0.03,0,0.05,0s0.04,0,0.06,0c0.75-0.05,1.48-0.11,2.17-0.17c0.17-0.01,0.33-0.03,0.5-0.06
			c31.97-4.37,61.45-19.93,83.01-43.83c21.77-24.13,34.02-55.22,34.49-87.55C480.31,145.18,480.3,144.89,480.28,144.61z
			 M160.16,405.22c-3.94,4.09-7.83,8.24-11.83,12.28c-17.21,17.4-42.3,22.81-64.6,13.62c-2.26-0.93-4.61-3.54-5.38-5.87
			c-8.06-24.55-6.61-47.22,13.32-66.32c8.66-8.29,16.59-17.34,25.06-25.83c15.86-15.87,40.05-16.32,56.3-1.24
			c16.78,15.57,18.04,39.64,2.79,56.88c-5.01,5.67-10.47,10.95-15.72,16.41C160.12,405.18,160.14,405.2,160.16,405.22z M429.4,218.2
			c-18.01,19.96-42.63,32.99-69.33,36.7c-0.46,0.04-0.93,0.08-1.43,0.11h-0.04c-0.03,0-0.05,0-0.08,0.01
			c-2.38,0.16-4.8,0.42-7.2,0.76c-2.51,0.16-4.99,0.24-7.36,0.24c-1.23,0-2.45,0.2-3.61,0.6c-8.2,2.83-27.41,10.15-35.38,19
			c-4.32,3.39-8.38,7.16-12.08,11.21c-0.15,0.16-0.29,0.33-0.43,0.49L159.64,451.29c-17.83,20.61-48.34,23.35-69.52,6.21
			c-1.08-0.88-2.29-1.5-3.54-1.91c-0.05-0.22-0.1-0.42-0.15-0.65c2.92,0.24,4.79,0.21,6.6,0.56c24.97,4.8,47.31-1,66.05-17.98
			c11.91-10.8,23.46-22.25,33.63-34.67c24.38-29.78,20.7-65.47-8.89-90.76c-20.34-17.38-58.78-20.45-84.77,7.88
			c-8.54,9.32-17.66,18.1-26.25,27.38c-18.54,20.01-24.9,43.4-18.95,70.1c0.43,1.93,0.39,3.96,0.55,6.06
			c-8.17-9.25-12.62-20.95-12.59-33.31c0.04-13.45,5.38-26.11,15.05-35.63L202.09,211.5c0.08-0.08,0.15-0.15,0.23-0.23
			c17.61-18.4,27.31-42.43,27.31-67.65v-0.11c0-2.3,0.1-4.32,0.29-6.01c0.02-0.2,0.04-0.4,0.05-0.61
			c1.69-28.24,14.04-54.62,34.79-74.28c18.54-17.57,42.28-28.33,67.68-30.84l-5.21,5.14c-16.67,16.43-25.86,38.28-25.86,61.54
			c0,23.27,9.18,45.14,25.86,61.59c34.33,33.82,90.19,33.82,124.52,0l5.94-5.85C455.41,177.86,445.54,200.31,429.4,218.2z"/>
	</g>
</g>
</svg>
