<?xml version="1.0" encoding="utf-8"?>
<!-- Generator: Adobe Illustrator 24.3.0, SVG Export Plug-In . SVG Version: 6.00 Build 0)  -->
<svg version="1.1" xmlns="http://www.w3.org/2000/svg" xmlns:xlink="http://www.w3.org/1999/xlink" x="0px" y="0px"
	 viewBox="0 0 500 500" style="enable-background:new 0 0 500 500;" xml:space="preserve">
<style type="text/css">
	.st0{fill:#ffffff;}
</style>
<g id="Calque_1">
	<rect class="st0" width="500" height="500"/>
</g>
<g id="Calque_2">
	<g>
		<path d="M352.69,160.93h-30.66l0.01-0.09c-15.77-0.94-30.49-6.12-44.33-15.22c1.78-1.46,2.83-2.5,4.05-3.28
			c16.78-10.91,26.28-26.38,27.64-46.24c0.86-12.62,1.16-25.42,0.15-38.01c-2.43-30.19-23.99-48.42-54.57-46.62
			c-21.02,1.24-44.5,20.48-43.77,50.73c0.24,9.95-0.14,19.9,0.05,29.85c0.41,21.46,9.57,38.2,27.51,50.09
			c1.33,0.88,2.44,2.11,3.73,3.23c-9.8,7.75-27.68,14.39-43.1,15.56h-52.09c-39.56,0-71.74,32.18-71.74,71.74
			c0,39.56,32.18,71.74,71.74,71.74h52.23v57.96l-2.55-2.14c-12.61-10.58-32.33-9.72-43.97,1.92c-12.2,12.2-11.4,31.58,1.86,42.71
			l44.66,37.47v36.11c0,5.64,4.58,10.22,10.22,10.22h122.64c5.64,0,10.22-4.58,10.22-10.22V363.59c0-15.44-11.55-28.52-26.87-30.43
			l-54.89-6.84v-21.92h91.82c39.56,0,71.74-32.18,71.74-71.74C424.42,193.11,392.24,160.93,352.69,160.93z M228.28,88.32
			c0.38-9.43-0.06-18.88,0.12-28.32c0.33-17.65,13.8-31.11,31.25-31.43c18.01-0.33,31.86,12.63,32.62,30.74
			c0.25,5.95,0.04,11.92,0.04,17.89c0.02,0,0.05,0,0.07,0c0,4.47,0.05,8.95-0.01,13.42c-0.27,19.26-11.54,36.02-29.2,42.98
			c-1.79,0.7-4.55,0.51-6.26-0.39C238.95,123.67,227.4,110.02,228.28,88.32z M322.19,468.22h-102.2v-20.44h102.2V468.22z
			 M313.23,353.45c5.11,0.64,8.96,5,8.96,10.14v63.74h-108.7l-45.46-38.14c-4.03-3.39-4.28-8.87-0.55-12.6
			c4.19-4.19,11.84-4.52,16.38-0.71l19.34,16.23c6.63,5.57,16.79,0.84,16.79-7.83V253.59c0-5.64,4.58-10.22,10.22-10.22
			s10.22,4.58,10.22,10.22v81.76c0,5.16,3.84,9.5,8.96,10.14L313.23,353.45z M352.69,283.97h-91.82v-30.37
			c0-16.91-13.75-30.66-30.66-30.66s-30.66,13.75-30.66,30.66v30.37h-52.23c-28.28,0-51.3-23.01-51.3-51.3
			c0-28.28,23.01-51.3,51.3-51.3h62.41l0.09-0.05l41.9-20.74c1.23-0.79,2.41-1.42,3.57-1.9c0.03-0.01,0.06-0.02,0.09-0.04
			c4.47-1.83,8.57-1.34,13.4,1.75c0,0,27.81,18.73,40.3,20.71l2.64,0.24l1.28,0.02l39.7-0.01c28.28,0,51.3,23.01,51.3,51.3
			C403.98,260.95,380.97,283.97,352.69,283.97z"/>
		<path d="M332.41,489.79H209.77c-6.26,0-11.35-5.09-11.35-11.35v-35.59l-44.25-37.13c-6.65-5.58-10.51-13.3-10.88-21.75
			c-0.37-8.45,2.81-16.49,8.95-22.63c12.04-12.04,32.46-12.94,45.5-1.99l0.69,0.58v-54.39h-51.1c-40.18,0-72.87-32.69-72.87-72.87
			c0-40.18,32.69-72.87,72.87-72.87h52.04c14.28-1.09,31.39-7.12,41.37-14.5c-0.07-0.07-0.14-0.13-0.21-0.2
			c-0.8-0.75-1.56-1.47-2.38-2.01c-18.18-12.05-27.6-29.22-28.02-51.02c-0.09-4.78-0.05-9.63-0.01-14.32
			c0.04-5.09,0.08-10.36-0.04-15.53c-0.73-30.37,22.71-50.58,44.84-51.89c31.4-1.87,53.29,16.85,55.77,47.66
			c0.91,11.27,0.86,23.41-0.15,38.18c-1.37,20.01-10.84,35.86-28.15,47.11c-0.73,0.47-1.42,1.07-2.3,1.82
			c-0.15,0.13-0.3,0.26-0.46,0.4c13.42,8.55,27.71,13.33,42.49,14.21l1.14,0.07l0,0.02h29.44c40.18,0,72.87,32.69,72.87,72.87
			c0,40.18-32.69,72.87-72.87,72.87H262v19.79l53.9,6.72c15.89,1.98,27.86,15.54,27.86,31.55v114.84
			C343.76,484.7,338.67,489.79,332.41,489.79z M176.14,353.95c-8.17,0-16.34,3.03-22.31,9c-5.68,5.68-8.62,13.11-8.28,20.93
			c0.34,7.8,3.92,14.95,10.07,20.11l45.06,37.81v36.64c0,5.01,4.08,9.09,9.09,9.09h122.64c5.01,0,9.09-4.08,9.09-9.09V363.59
			c0-14.87-11.12-27.46-25.88-29.3l-55.89-6.96v-24.06h92.95c38.93,0,70.6-31.67,70.6-70.6c0-38.93-31.67-70.6-70.6-70.6h-31.87
			l0.01-0.17c-15.25-1.11-29.96-6.27-43.74-15.33l-1.29-0.85l1.19-0.98c0.61-0.5,1.13-0.95,1.61-1.36c0.94-0.81,1.68-1.44,2.54-2
			c16.68-10.85,25.81-26.11,27.13-45.37c1-14.66,1.05-26.68,0.15-37.84c-2.37-29.46-23.32-47.35-53.37-45.58
			c-21.08,1.25-43.4,20.55-42.7,49.57c0.13,5.2,0.08,10.49,0.04,15.6c-0.04,4.68-0.08,9.51,0.01,14.26
			c0.4,21.01,9.48,37.55,27,49.17c0.99,0.65,1.85,1.47,2.68,2.25c0.38,0.36,0.76,0.72,1.17,1.07l1.02,0.9l-1.07,0.84
			c-10.12,8.01-28.51,14.65-43.72,15.8l-0.09,0h-52.09c-38.93,0-70.6,31.67-70.6,70.6c0,38.93,31.67,70.6,70.6,70.6h53.37v61.52
			l-4.41-3.7C190.56,356.31,183.35,353.95,176.14,353.95z M323.32,469.35H218.85v-22.71h104.47V469.35z M221.12,467.08h99.93v-18.17
			h-99.93V467.08z M323.32,428.47H213.07l-45.78-38.41c-2.2-1.85-3.47-4.33-3.59-6.99c-0.12-2.66,0.94-5.25,2.97-7.28
			c4.58-4.58,12.95-4.94,17.91-0.78l19.34,16.23c2.73,2.29,6.44,2.77,9.68,1.26c3.24-1.51,5.25-4.66,5.25-8.22V253.59
			c0-6.26,5.09-11.35,11.35-11.35s11.35,5.09,11.35,11.35v81.76c0,4.57,3.42,8.45,7.96,9.02l63.85,7.95
			c5.67,0.71,9.95,5.55,9.95,11.27V428.47z M213.9,426.2h107.16v-62.61c0-4.57-3.42-8.45-7.96-9.02l-63.85-7.95
			c-5.67-0.71-9.95-5.55-9.95-11.27v-81.76c0-5.01-4.08-9.09-9.09-9.09s-9.09,4.08-9.09,9.09v130.69c0,4.45-2.51,8.39-6.56,10.28
			c-4.05,1.89-8.68,1.28-12.1-1.58l-19.34-16.23c-4.11-3.45-11.05-3.15-14.85,0.65c-1.58,1.58-2.39,3.55-2.31,5.57
			c0.09,2.02,1.08,3.92,2.78,5.35L213.9,426.2z M352.69,285.1h-92.95v-31.51c0-16.28-13.25-29.53-29.53-29.53
			c-16.28,0-29.53,13.25-29.53,29.53v31.51h-53.37c-28.91,0-52.43-23.52-52.43-52.43c0-28.91,23.52-52.43,52.43-52.43h62.14
			l41.7-20.64c1.27-0.81,2.48-1.45,3.69-1.95l0.08-0.03c4.9-2,9.35-1.43,14.46,1.84c0.3,0.2,27.71,18.59,39.83,20.54l2.56,0.23
			l1.24,0.02l39.67-0.01c28.91,0,52.43,23.52,52.43,52.43C405.12,261.58,381.6,285.1,352.69,285.1z M262,282.83h90.69
			c27.66,0,50.16-22.5,50.16-50.16s-22.5-50.16-50.16-50.16l-39.7,0.01l-1.38-0.03l-2.72-0.25c-12.6-1.99-39.61-20.12-40.76-20.89
			c-4.46-2.86-8.15-3.36-12.34-1.64l-0.06,0.02c-1.14,0.47-2.25,1.06-3.42,1.82l-0.11,0.06l-41.96,20.77l-0.25,0.13h-62.69
			c-27.66,0-50.16,22.5-50.16,50.16s22.5,50.16,50.16,50.16h51.1v-29.24c0-17.53,14.26-31.79,31.79-31.79
			c17.53,0,31.8,14.26,31.8,31.79V282.83z M260.62,135.15c-1.5,0-3.05-0.33-4.23-0.95c-20.49-10.86-30.05-25.88-29.24-45.92
			c0.22-5.36,0.17-10.83,0.12-16.12c-0.04-3.99-0.08-8.12,0-12.18c0.34-18.23,14.26-32.22,32.36-32.54c0.23,0,0.47-0.01,0.7-0.01
			c18.43,0,32.3,13.28,33.08,31.83c0.17,4.12,0.13,8.29,0.08,12.34c-0.02,1.49-0.03,2.98-0.04,4.47h0.07v1.13
			c0,1.41,0.01,2.82,0.01,4.23c0.01,3.01,0.02,6.13-0.02,9.2c-0.27,19.68-12.01,36.96-29.92,44.02
			C262.73,134.98,261.69,135.15,260.62,135.15z M229.41,88.36c-0.78,19.35,8.12,33.27,28.04,43.83c1.43,0.76,3.86,0.91,5.31,0.34
			c17.04-6.72,28.22-23.19,28.48-41.94c0.04-3.05,0.03-6.16,0.02-9.16c0-1.04-0.01-2.07-0.01-3.11h-0.07v-1.13
			c0-1.87,0.02-3.75,0.04-5.63c0.04-4.01,0.09-8.16-0.08-12.21c-0.74-17.5-13.99-29.96-31.47-29.65
			c-16.86,0.3-29.81,13.34-30.13,30.32c-0.08,4.03-0.04,8.14,0,12.11C229.58,77.45,229.63,82.95,229.41,88.36L229.41,88.36z"/>
	</g>
</g>
</svg>
