<?xml version="1.0" encoding="utf-8"?>
<!-- Generator: Adobe Illustrator 24.3.0, SVG Export Plug-In . SVG Version: 6.00 Build 0)  -->
<svg version="1.1" id="Calque_1" xmlns="http://www.w3.org/2000/svg" xmlns:xlink="http://www.w3.org/1999/xlink" x="0px" y="0px"
	 viewBox="0 0 500 500" style="enable-background:new 0 0 500 500;" xml:space="preserve">
<style type="text/css">
	.st0{fill:#0A0B0B;}
</style>
<path class="st0" d="M216.03,404.23c-19.52,0-35.39-15.91-35.39-35.48v-25.15h-25.17c-23.13,0-41.94-18.86-41.94-42.04V95.77h102.5
	c49.53,0,91.41,13.08,121.1,37.82c32.28,26.9,49.34,67.15,49.34,116.41s-17.06,89.52-49.34,116.41
	C307.44,391.16,265.56,404.23,216.03,404.23z M193.59,338.41v35.15c0,10.13,11.26,18.38,21.4,18.38
	c99.79,0,159.36-53.03,159.36-141.86S314.78,108.21,215,108.21h-88.45v195.48c0,13.9,11.32,27.21,25.24,27.21h34.27V162.74h35.43
	c62.52,0,91.36,27.3,91.36,87.33c0,60.04-28.84,88.34-91.36,88.34H193.59z M198.4,325.81h23.85c50.43,0,79.36-27.63,79.36-75.81
	c0-48.18-28.92-75.81-79.36-75.81H198.4V325.81z"/>
</svg>
