<?xml version="1.0" encoding="utf-8"?>
<!-- Generator: Adobe Illustrator 24.3.0, SVG Export Plug-In . SVG Version: 6.00 Build 0)  -->
<svg version="1.1" id="Calque_1" xmlns="http://www.w3.org/2000/svg" xmlns:xlink="http://www.w3.org/1999/xlink" x="0px" y="0px"
	 viewBox="0 0 500 500" style="enable-background:new 0 0 500 500;" xml:space="preserve">
<style type="text/css">
	.st0{fill:#ffffff;}
</style>
<g id="Calque_1_1_">
	<rect class="st0" width="500" height="500"/>
</g>
<g id="Calque_2_1_">
	<path d="M250.2,11.52c25.93,24.58,51.61,48.93,77.3,73.28c0.96-0.28,1.92-0.56,2.88-0.85c0-10.38,0.41-20.78-0.12-31.13
		c-0.51-9.92,5.93-9.46,12.29-8.98c5.81,0.44,14.06-3.27,13.96,8.23c-0.27,29.36-0.11,58.73-0.18,88.09c0,0.99-0.6,1.99-1.79,5.66
		c-35.26-33.49-69.52-66.04-104.48-99.25c-10.96,10.29-21.39,19.96-31.69,29.77c-56.06,53.4-112.11,106.81-168.12,160.26
		c-15.67,14.95-18.03,30.56-5.07,41.5c5.1,4.31,13.01,6.68,19.85,7.2c8.26,0.63,10.5,3.38,10.46,11.32
		c-0.28,51.02,0.12,102.04-0.35,153.06c-0.09,9.98,2.5,13.56,12.83,13.18c22.74-0.84,45.54-0.06,68.28-0.89
		c23.53-0.85,52.06-11.11,67.32-23.17c-1.89-1.66-3.53-3.46-5.5-4.77c-26.47-17.55-39.99-42.24-40.59-73.91
		c-0.28-14.68,0.27-29.37-0.08-44.04c-1.07-44.62,33.57-73.01,64.58-74.84c45.12-2.66,76.93,24.23,80.51,68.78
		c1.49,18.58,1.05,37.45-0.22,56.08c-2,29.3-16.03,52.13-40.78,68.22c-1.79,1.16-3.34,2.69-5.97,4.85
		c20.42,13.43,42.14,21.07,65.4,22.46c25.26,1.51,50.65,0.64,75.98,1.16c8.88,0.18,7.79-5.65,7.79-11.12
		c0.01-49.92,0.01-99.84,0.01-149.76c0-14.79-0.01-14.86,14.98-16.44c10.58-1.12,17.89-6.88,21.56-16.43
		c3.7-9.62,2.12-18.8-5.68-26.28c-17.73-17.02-35.23-34.3-53.32-50.93c-7.53-6.92-11.21-14.05-11.01-24.71
		c0.68-36.69,0.51-73.41,0.08-110.11c-0.11-9.44,1.64-13.65,12.53-13.62c11.09,0.02,13.42,3.93,13.24,14.12
		c-0.57,33.39,0.02,66.8-0.4,100.2c-0.11,8.76,2.19,15.12,8.87,21.09c15.31,13.7,29.99,28.11,44.73,42.43
		c29.04,28.23,22.87,68.27-13.63,85.92c-6.68,3.23-6.74,7.49-6.74,13.13c0.05,51.75-0.25,103.51,0.24,155.26
		c0.1,10.19-2.85,13.2-12.98,12.9c-32.65-0.95-65.37-0.03-97.97-1.69c-27.49-1.41-53.24-10.53-76.48-25.43
		c-8.87-5.69-16.16-6.05-25.17-0.27c-28.53,18.3-60.26,26.54-93.94,27.09c-27.17,0.44-54.36-0.36-81.52,0.33
		c-10.16,0.26-12.17-3.46-12.1-12.71c0.37-51.75,0.11-103.51,0.23-155.26c0.01-6.26-0.69-10.53-7.63-13.73
		c-35-16.15-41.81-57.89-13.95-84.59c50.32-48.24,100.9-96.21,151.34-144.33c21.5-20.52,42.9-41.15,64.37-61.69
		C245.89,14.68,247.7,13.49,250.2,11.52z M297.16,338.21c-0.04,0-0.07,0-0.11,0c0-8.8,0.31-17.61-0.06-26.39
		c-1.13-26.71-21.56-45.83-48.13-45.35c-25.74,0.46-45.61,20.33-46.1,46.37c-0.26,13.93,0.39,27.88-0.18,41.79
		c-1.3,32.03,15.75,52.16,42.25,66.21c2.52,1.34,6.6,1.62,9.23,0.58c26.05-10.28,42.69-35,43.08-63.41
		C297.24,351.41,297.16,344.81,297.16,338.21z"/>
</g>
</svg>
