<?xml version="1.0" encoding="utf-8"?>
<!-- Generator: Adobe Illustrator 24.3.0, SVG Export Plug-In . SVG Version: 6.00 Build 0)  -->
<svg version="1.1" id="Calque_1" xmlns="http://www.w3.org/2000/svg" xmlns:xlink="http://www.w3.org/1999/xlink" x="0px" y="0px"
	 viewBox="0 0 500 500" style="enable-background:new 0 0 500 500;" xml:space="preserve">
<style type="text/css">
	.st0{fill:#0A0B0B;}
</style>
<path class="st0" d="M343.21,410.05H223.9c-22.03,0-39.95-17.96-39.95-40.04v-22.24h-27.16c-22.03,0-39.95-17.96-39.95-40.04V132.49
	c0-23.45,19.04-42.53,42.43-42.53s42.43,19.08,42.43,42.53v197.48h141.49c22.03,0,39.95,17.96,39.95,40.04
	S365.23,410.05,343.21,410.05z M196.03,342.68v27.35c0,15.08,10.64,27.35,23.72,27.35h127.53c13.08,0,23.72-12.27,23.72-27.35
	s-10.64-27.35-23.72-27.35H196.03z M159.2,102.31c-16.62,0-30.14,11.61-30.14,25.88v183.39c0,12.84,12.16,23.28,27.1,23.28h33.17
	V128.19C189.34,113.92,175.82,102.31,159.2,102.31z"/>
</svg>
