<?xml version="1.0" encoding="utf-8"?>
<!-- Generator: Adobe Illustrator 24.3.0, SVG Export Plug-In . SVG Version: 6.00 Build 0)  -->
<svg version="1.1" id="Layer_1" xmlns="http://www.w3.org/2000/svg" xmlns:xlink="http://www.w3.org/1999/xlink" x="0px" y="0px"
	 viewBox="0 0 986.9 1080" style="enable-background:new 0 0 986.9 1080;" xml:space="preserve">
<style type="text/css">
	.st0{fill:#0A0A0A;}
</style>
<g>
	<g>
		<path class="st0" d="M308.91,178.13l11.77-16.67l29.75,10.68l11.39,4.49l0.3-0.43l-8.07-9.19l-20.02-24.48l11.76-16.68
			l70.27,49.57l-9.49,13.45l-21.76-15.34c-7.91-5.58-24.06-19.06-31.13-25.16l-0.23,0.32l15.06,18.69l13.07,17.41l-5.44,7.71
			l-20.85-6.38l-22.41-8.27l-0.27,0.37c8.16,4.56,26.24,15.31,34.15,20.89l21.75,15.35l-9.34,13.23L308.91,178.13z"/>
		<path class="st0" d="M433.76,101.22c-14.3-24.92-9.76-45.34,7.99-55.53c17.76-10.2,37.68-3.82,51.99,21.1
			c14.64,25.51,10.16,46.02-7.6,56.22C468.38,133.2,448.41,126.73,433.76,101.22z M476.44,76.72c-8.9-15.5-18.54-20.92-26.32-16.45
			c-7.78,4.47-7.96,15.53,0.94,31.02c9.23,16.08,18.93,21.6,26.71,17.14C485.55,103.96,485.67,92.8,476.44,76.72z"/>
		<path class="st0" d="M561.24,2.94l28.8-2.59c17.8-1.6,31.8,2.05,33.28,18.39c0.69,7.69-3.15,16.29-12.97,19.82l0.05,0.53
			c12.44,1.15,19.43,7.03,20.46,18.48c1.57,17.42-12.01,26.51-30.66,28.19l-31.24,2.81L561.24,2.94z M592.23,34.79
			c9.41-0.85,12.97-5.17,12.4-11.63c-0.58-6.39-4.98-8.48-13.98-7.67l-8.71,0.79l1.73,19.29L592.23,34.79z M597.25,70.82
			c10.55-0.95,15.23-5.22,14.53-13.03c-0.67-7.51-5.88-10.17-16.53-9.21l-10.33,0.93l2.01,22.25L597.25,70.82z"/>
		<path class="st0" d="M693.81,75.57l18.88,6.81l18.07-50.19l-18.88-6.8l5.52-15.35l56.09,20.2l-5.53,15.35l-18.89-6.8L731,88.97
			l18.89,6.8l-5.52,15.35l-56.09-20.2L693.81,75.57z"/>
		<path class="st0" d="M859.01,84.96l13.85,13.62l-48.84,49.67l27.29,26.83l-11.43,11.63l-41.15-40.45L859.01,84.96z"/>
		<path class="st0" d="M886.36,230.08l7.07,18.79l49.92-18.78l-7.07-18.79l15.27-5.74l20.99,55.79l-15.27,5.74l-7.07-18.79
			l-49.92,18.78l7.07,18.79l-15.27,5.75l-20.98-55.79L886.36,230.08z"/>
		<path class="st0" d="M968.76,376.54l1.86-25.7l16.27,1.18l-5.16,70.8l-16.27-1.19l1.87-25.7l-69.46-5.06l1.41-19.4L968.76,376.54z
			"/>
		<path class="st0" d="M894.82,500.38l63.19,3.32l-10.07,18.18l-22.29-2.35c-7.03-0.99-13.71-1.77-21.02-2.72l-0.26,0.47
			c4.71,5.66,8.81,11.09,13.33,16.6l13.88,17.54l-9.82,17.75l-36.37-51.78l-25.43-14.07l9.42-17.02L894.82,500.38z"/>
	</g>
	<g>
		<g>
			<g>
				<path class="st0" d="M320.23,587.61H151.46c-31.16,0-56.52-25.35-56.52-56.52V499.7H56.52C25.35,499.7,0,474.34,0,443.18V195.87
					c0-33.1,26.93-60.03,60.03-60.03s60.03,26.93,60.03,60.03v278.71h200.17c31.16,0,56.52,25.35,56.52,56.52
					C376.75,562.25,351.4,587.61,320.23,587.61z M120.06,499.7v31.39c0,17.31,14.08,31.39,31.39,31.39h168.78
					c17.31,0,31.39-14.08,31.39-31.39c0-17.31-14.08-31.39-31.39-31.39H120.06z M60.03,160.96c-19.25,0-34.91,15.66-34.91,34.91
					v247.31c0,17.31,14.08,31.39,31.39,31.39h38.42V195.87C94.94,176.62,79.28,160.96,60.03,160.96z"/>
			</g>
			<g>
				<path class="st0" d="M188.37,1079.42C75.7,1079.42,0,1006.07,0,896.9V695.89c0-33.1,26.93-60.03,60.03-60.03
					s60.03,26.93,60.03,60.03v189.29c0,51.61,24.9,81.21,68.32,81.21c43.41,0,68.31-29.6,68.31-81.21V695.89
					c0-33.1,26.93-60.03,60.03-60.03c33.1,0,60.03,26.93,60.03,60.03V896.9C376.75,1006.07,301.05,1079.42,188.37,1079.42z
					 M60.03,660.98c-19.25,0-34.91,15.66-34.91,34.91V896.9c0,95.61,64.08,157.39,163.25,157.39s163.25-61.78,163.25-157.39V695.89
					c0-19.25-15.66-34.91-34.91-34.91c-19.25,0-34.91,15.66-34.91,34.91v189.29c0,65.59-35.8,106.33-93.43,106.33
					c-57.63,0-93.44-40.74-93.44-106.33V695.89C94.94,676.64,79.28,660.98,60.03,660.98z"/>
			</g>
			<g>
				<path class="st0" d="M622.47,587.61c-130.11,0-228.23-97.11-228.23-225.88c0-128.78,98.12-225.89,228.23-225.89
					S850.7,232.95,850.7,361.72C850.7,490.5,752.59,587.61,622.47,587.61z M622.47,160.96c-115.79,0-203.1,86.31-203.1,200.76
					c0,114.45,87.32,200.76,203.1,200.76s203.1-86.31,203.1-200.76C825.58,247.27,738.26,160.96,622.47,160.96z M622.47,499.7
					c-78.48,0-133.29-56.74-133.29-137.97c0-81.24,54.81-137.98,133.29-137.98s133.29,56.74,133.29,137.98
					C755.76,442.96,700.95,499.7,622.47,499.7z M622.47,248.87c-63.68,0-108.16,46.41-108.16,112.86
					c0,66.44,44.48,112.85,108.16,112.85s108.16-46.41,108.16-112.85C730.64,295.28,686.16,248.87,622.47,248.87z"/>
			</g>
			<g>
				<path class="st0" d="M584.47,1079.42c-27.61,0-50.07-22.46-50.07-50.07v-35.49h-35.6c-32.72,0-59.34-26.62-59.34-59.34V644.06
					h145.01c70.07,0,129.31,18.45,171.32,53.38c45.67,37.96,69.8,94.77,69.8,164.3s-24.14,126.34-69.8,164.3
					C713.78,1060.97,654.54,1079.42,584.47,1079.42z M559.52,993.86v35.49c0,13.75,11.19,24.95,24.95,24.95
					c135.25,0,216-71.98,216-192.56s-80.75-192.56-216-192.56H464.58v265.34c0,18.87,15.35,34.21,34.21,34.21h35.6V729.63h58.86
					c84.74,0,137.39,50.62,137.39,132.11c0,81.5-52.64,132.12-137.39,132.12H559.52z M559.52,968.74h33.74
					c71.35,0,112.27-39,112.27-107c0-67.99-40.92-106.99-112.27-106.99h-33.74V968.74z"/>
			</g>
		</g>
	</g>
</g>
</svg>
