<?xml version="1.0" encoding="utf-8"?>
<!-- Generator: Adobe Illustrator 24.3.0, SVG Export Plug-In . SVG Version: 6.00 Build 0)  -->
<svg version="1.1" id="Calque_1" xmlns="http://www.w3.org/2000/svg" xmlns:xlink="http://www.w3.org/1999/xlink" x="0px" y="0px"
	 viewBox="0 0 500 500" style="enable-background:new 0 0 500 500;" xml:space="preserve">
<style type="text/css">
	.st0{fill:#0A0B0B;}
</style>
<g>
	<path class="st0" d="M250,89.95c-91.97,0-161.33,68.81-161.33,160.05c0,91.24,69.35,160.05,161.33,160.05S411.33,341.24,411.33,250
		C411.33,158.76,341.97,89.95,250,89.95z M249.25,397.72c-83.33,0-146.17-63.3-146.17-147.24c0-83.94,62.84-147.24,146.17-147.24
		s146.17,63.3,146.17,147.24C395.41,334.42,332.58,397.72,249.25,397.72z"/>
	<path class="st0" d="M250,152.24c-55.47,0-94.22,40.2-94.22,97.76c0,57.56,38.74,97.76,94.22,97.76c55.47,0,94.22-40.2,94.22-97.76
		C344.22,192.44,305.47,152.24,250,152.24z M250.3,332.08c-45.68,0-77.58-33.97-77.58-82.6c0-48.64,31.9-82.61,77.58-82.61
		s77.58,33.97,77.58,82.61C327.88,298.11,295.98,332.08,250.3,332.08z"/>
</g>
</svg>
